<svg width="33" height="33" viewBox="0 0 33 33" fill="none" xmlns="http://www.w3.org/2000/svg">
<path d="M29.4411 14.7577L33 12.1872L31.152 7.79561L26.9115 8.38395L24.7263 6.28271V1.60745L20.8582 0.0630372L17.9879 3.41102H15.1773L12.3877 0L8.15075 1.67749V6.28621L5.90227 8.38746L1.68636 8.07577L0 12.1872L3.36921 14.8978V18.1197L0.0632386 21.0439L1.62664 24.8227H6.39061L8.14724 26.9799L7.72213 31.0774L12.3842 33L14.8224 29.6765H18.3357L20.8547 32.8949L25.2462 31.0949L24.7263 26.8749L26.771 24.8227H31.3734L32.9368 21.0439L29.4411 18.0497V14.7577ZM16.4982 24.3219C12.1629 24.3219 8.64963 20.8198 8.64963 16.4982C8.64963 12.1767 12.1629 8.67463 16.4982 8.67463C20.8336 8.67463 24.3469 12.1767 24.3469 16.4982C24.3469 20.8198 20.8336 24.3219 16.4982 24.3219Z" fill="black" fill-opacity="0.25"/>
</svg>
